Genre:Western 
Language: English
IMDB:http://www.imdb.com/title/tt1282147/
Source:.DVDR-CME

General
Complete name : Doc West 2009 DVDRip.H264.Feel-Free
Format : MPEG-4
Format profile : Base Media
Codec ID : isom
File size : 1.20 GiB
Duration : 1h 37mn
Overall bit rate : 1 770 Kbps
Video #1
ID : 1
Format : AVC
Format/Info : Advanced Video Codec
Format profile : Baseline@L5.1
Format settings, CABAC : No
Format settings, ReFrames : 1 frame
Codec ID : avc1
Codec ID/Info : Advanced Video Coding
Duration : 1h 37mn
Bit rate mode : Variable
Bit rate : 1 523 Kbps
Width : 652 pixels
Height : 352 pixels
Display aspect ratio : 1.852
Frame rate mode : Constant
Frame rate : 23.976 fps
Resolution : 24 bits
Colorimetry : 4:2:0
Scan type : Progressive
Bits/(Pixel*Frame) : 0.277
Stream size : 1.04 GiB (86%)
Audio #2
ID : 2
Format : AAC
Format/Info : Advanced Audio Codec
Format version : Version 4
Format profile : LC
Format settings, SBR : No
Codec ID : 40
Duration : 1h 37mn
Bit rate mode : Variable
Bit rate : 256 Kbps
Channel(s) : 6 channels
Channel positions : Front: L C R, Rear: L R, LFE
Sampling rate : 48.0 KHz
Resolution : 16 bits
Stream size : 169 MiB (14%)

Plot
After bandits steal his poker winnings this American legend makes his way to the next town in search of them






================================== 
http://thepiratebay.org/user/hiest
==================================







Screenshots:
 
http://www.starshare.ro/bitbucket/vlcsnap2010-09-12-04h39m51s70.jpg
 
http://www.starshare.ro/bitbucket/vlcsnap2010-09-12-04h39m55s105.jpg
 
http://www.starshare.ro/bitbucket/vlcsnap2010-09-12-04h40m07s218.jpg
 
http://www.starshare.ro/bitbucket/vlcsnap2010-09-12-04h40m12s19.jpg
 
http://www.starshare.ro/bitbucket/vlcsnap2010-09-12-04h40m17s72.jpg
 
http://www.starshare.ro/bitbucket/vlcsnap2010-09-12-04h40m27s174.jpg